<svg xmlns="http://www.w3.org/2000/svg" xmlns:xlink="http://www.w3.org/1999/xlink" version="1.1" width="256" height="256" viewBox="0 0 256 256" xml:space="preserve">

<defs>
</defs>
<g style="stroke: none; stroke-width: 0; stroke-dasharray: none; stroke-linecap: butt; stroke-linejoin: miter; stroke-miterlimit: 10; fill: none; fill-rule: nonzero; opacity: 1;" transform="translate(1.4065934065934016 1.4065934065934016) scale(2.81 2.81)" >
	<path d="M 45 12.598 c 2.862 0 5.636 0.375 8.279 1.072 C 51.02 8.372 48.206 4.022 45 1 c -3.206 3.022 -6.02 7.372 -8.279 12.669 C 39.364 12.973 42.138 12.598 45 12.598 z" style="stroke: none; stroke-width: 1; stroke-dasharray: none; stroke-linecap: butt; stroke-linejoin: miter; stroke-miterlimit: 10; fill: rgb(255,143,51); fill-rule: nonzero; opacity: 1;" transform=" matrix(1 0 0 1 0 0) " stroke-linecap="round" />
	<path d="M 73.005 28.709 c 2.15 -5.347 3.238 -10.416 3.108 -14.822 c -4.406 -0.13 -9.475 0.958 -14.822 3.108 C 66.136 19.82 70.18 23.864 73.005 28.709 z" style="stroke: none; stroke-width: 1; stroke-dasharray: none; stroke-linecap: butt; stroke-linejoin: miter; stroke-miterlimit: 10; fill: rgb(255,143,51); fill-rule: nonzero; opacity: 1;" transform=" matrix(1 0 0 1 0 0) " stroke-linecap="round" />
	<path d="M 28.709 16.995 c -5.347 -2.15 -10.416 -3.238 -14.822 -3.108 c -0.13 4.406 0.958 9.475 3.108 14.822 C 19.82 23.864 23.864 19.82 28.709 16.995 z" style="stroke: none; stroke-width: 1; stroke-dasharray: none; stroke-linecap: butt; stroke-linejoin: miter; stroke-miterlimit: 10; fill: rgb(255,143,51); fill-rule: nonzero; opacity: 1;" transform=" matrix(1 0 0 1 0 0) " stroke-linecap="round" />
	<path d="M 89 45 c -3.022 -3.206 -7.372 -6.02 -12.669 -8.279 c 0.697 2.643 1.072 5.417 1.072 8.279 s -0.375 5.636 -1.072 8.279 C 81.628 51.02 85.978 48.206 89 45 z" style="stroke: none; stroke-width: 1; stroke-dasharray: none; stroke-linecap: butt; stroke-linejoin: miter; stroke-miterlimit: 10; fill: rgb(255,143,51); fill-rule: nonzero; opacity: 1;" transform=" matrix(1 0 0 1 0 0) " stroke-linecap="round" />
	<path d="M 12.598 45 c 0 -2.862 0.375 -5.636 1.072 -8.279 C 8.372 38.98 4.022 41.794 1 45 c 3.022 3.206 7.372 6.02 12.669 8.279 C 12.973 50.636 12.598 47.862 12.598 45 z" style="stroke: none; stroke-width: 1; stroke-dasharray: none; stroke-linecap: butt; stroke-linejoin: miter; stroke-miterlimit: 10; fill: rgb(255,143,51); fill-rule: nonzero; opacity: 1;" transform=" matrix(1 0 0 1 0 0) " stroke-linecap="round" />
	<path d="M 61.291 73.005 c 5.347 2.15 10.416 3.238 14.822 3.108 c 0.13 -4.406 -0.958 -9.475 -3.108 -14.822 C 70.18 66.136 66.136 70.18 61.291 73.005 z" style="stroke: none; stroke-width: 1; stroke-dasharray: none; stroke-linecap: butt; stroke-linejoin: miter; stroke-miterlimit: 10; fill: rgb(255,143,51); fill-rule: nonzero; opacity: 1;" transform=" matrix(1 0 0 1 0 0) " stroke-linecap="round" />
	<path d="M 45 77.402 c -2.862 0 -5.636 -0.375 -8.279 -1.072 C 38.98 81.628 41.794 85.978 45 89 c 3.206 -3.022 6.02 -7.372 8.279 -12.669 C 50.636 77.027 47.862 77.402 45 77.402 z" style="stroke: none; stroke-width: 1; stroke-dasharray: none; stroke-linecap: butt; stroke-linejoin: miter; stroke-miterlimit: 10; fill: rgb(255,143,51); fill-rule: nonzero; opacity: 1;" transform=" matrix(1 0 0 1 0 0) " stroke-linecap="round" />
	<path d="M 16.995 61.291 c -2.15 5.347 -3.238 10.416 -3.108 14.822 c 4.406 0.13 9.475 -0.958 14.822 -3.108 C 23.864 70.18 19.82 66.136 16.995 61.291 z" style="stroke: none; stroke-width: 1; stroke-dasharray: none; stroke-linecap: butt; stroke-linejoin: miter; stroke-miterlimit: 10; fill: rgb(255,143,51); fill-rule: nonzero; opacity: 1;" transform=" matrix(1 0 0 1 0 0) " stroke-linecap="round" />
	<circle cx="45" cy="45" r="25" style="stroke: none; stroke-width: 1; stroke-dasharray: none; stroke-linecap: butt; stroke-linejoin: miter; stroke-miterlimit: 10; fill: rgb(255,216,51); fill-rule: nonzero; opacity: 1;" transform="  matrix(1 0 0 1 0 0) "/>
</g>
</svg>